<svg width="149" height="40" viewBox="0 0 149 40" fill="none" xmlns="http://www.w3.org/2000/svg">
<rect x="10.759" y="7.06644" width="26.6875" height="26.5342" fill="white"/>
<path fill-rule="evenodd" clip-rule="evenodd" d="M15.4273 39.5678L24.9803 39.7795C24.9955 39.7795 25.0259 39.7795 25.0259 39.8071C30.3458 39.9268 35.529 39.5494 40.8337 39.0801C45.0668 38.7212 46.07 35.0031 46.5944 30.5673C47.248 25.2111 47.3924 19.7905 47.0504 14.3976C47.0341 14.1429 47.0183 13.886 47.0023 13.6275C46.6843 8.46673 46.3269 2.66537 41.2897 1.59616C40.2181 1.36608 39.1237 1.16361 38.0369 1.1268C27.7467 0.721868 17.3652 0.620635 7.05219 1.48572C3.99704 1.725 2.02107 3.91532 1.51947 7.58733C0.630287 14.1307 0.44789 20.8489 0.919083 27.4475C0.924963 27.5282 0.93084 27.6091 0.936733 27.6904C1.27358 32.3321 1.6672 37.7561 6.201 38.8776C8.64187 39.4925 11.1271 39.517 13.6169 39.5416C14.2203 39.5475 14.8239 39.5535 15.4273 39.5678ZM24.395 25.0516C22.725 26.2138 21.0513 27.3787 19.364 28.5518V12.0048C21.181 13.2669 22.9853 14.5232 24.7914 15.7809C26.9362 17.2743 29.0836 18.7695 31.2578 20.2783C28.9608 21.8739 26.6814 23.4602 24.395 25.0516Z" fill="#FF0000"/>
<path fill-rule="evenodd" clip-rule="evenodd" d="M123.587 36.3291L123.588 36.3282C123.694 35.8356 123.804 35.3275 123.923 34.7362C124.015 34.8916 124.089 35.0194 124.153 35.13L124.154 35.1314L124.154 35.1315L124.154 35.1324C124.237 35.2762 124.303 35.3911 124.372 35.5001C126.355 38.6567 130.353 38.1045 131.576 34.4601C131.949 33.3558 132.245 32.1502 132.291 30.9722C132.405 27.1161 132.45 23.2693 132.39 19.4132C132.359 17.9131 132.108 16.3762 131.721 14.9405C131.12 12.6306 129.426 11.5722 127.442 12.0416C126.196 12.3545 125.23 13.1643 124.486 14.4068C124.441 14.4771 124.394 14.5456 124.334 14.6314L124.334 14.6317C124.261 14.7367 124.17 14.8678 124.045 15.0602V2.17593H119.683V37.1014H123.422C123.476 36.8454 123.53 36.5947 123.585 36.3399L123.587 36.3328L123.587 36.3291ZM124.136 31.5152V25.1283V18.7414C124.136 17.6646 124.562 16.8548 125.261 16.2842C126.188 15.5387 127.13 15.9161 127.472 17.1953C127.655 17.9039 127.799 18.6586 127.799 19.3856C127.776 23.2969 127.7 27.199 127.617 31.1011C127.609 31.5152 127.465 31.9293 127.32 32.3251C126.978 33.273 126.294 33.6687 125.451 33.4294C124.592 33.1901 124.136 32.5551 124.136 31.5152ZM112.28 12.5385H116.848V37.1198H113.283C113.166 36.2761 113.049 35.4096 112.915 34.4171L112.915 34.4168L112.873 34.1104C112.715 34.392 112.598 34.6073 112.494 34.7994C112.439 34.9025 112.387 34.9988 112.333 35.0952C111.148 37.1658 109.468 37.8745 107.485 37.4972C105.79 37.1658 104.772 35.5829 104.544 32.9877C104.475 32.2146 104.445 31.4324 104.445 30.6593C104.435 26.8268 104.438 22.9862 104.441 19.1483V19.1471V19.1459V19.1447V19.1435V19.1423V19.141V19.1398V19.1378V19.1357V19.1337V19.1316V19.1296V19.1276V19.1255C104.443 17.211 104.445 15.2971 104.445 13.3852V12.5201H109.066V13.5233C109.066 14.9132 109.065 16.3026 109.064 17.6917V17.6925V17.6934V17.6943V17.6951V17.696V17.6968V17.6977C109.061 21.8618 109.058 26.0233 109.081 30.19C109.081 30.9814 109.149 31.8005 109.263 32.5919C109.392 33.4018 109.879 33.6963 110.532 33.6411C111.589 33.5399 112.318 32.5919 112.318 31.3219V13.6245C112.28 13.2656 112.28 12.9343 112.28 12.5385ZM85.4223 12.5201H80.8319L80.8243 13.1828C80.8243 19.1555 80.8243 25.1559 80.8395 31.1287C80.8395 31.8741 80.9003 32.6103 80.9839 33.3558C81.2879 35.7394 82.2835 37.1935 83.9099 37.4879C85.9391 37.8653 87.6034 37.0922 88.789 34.9847C88.9182 34.7362 89.0474 34.497 89.2754 34.0828C89.3528 34.6324 89.4221 35.1288 89.487 35.5938L89.4872 35.5956C89.5624 36.1344 89.6317 36.6311 89.701 37.1198H93.2502V12.557H88.6826V13.6613V31.2667C88.675 32.5459 88.0442 33.4202 87.003 33.5951C86.2507 33.7147 85.8099 33.4202 85.6351 32.5091C85.4983 31.7361 85.4375 30.917 85.4375 30.1255C85.4147 25.9917 85.4175 21.8528 85.4204 17.7086C85.4213 16.3263 85.4223 14.9435 85.4223 13.5601V12.5201ZM78.476 25.6436C78.4638 26.3062 78.4322 26.9688 78.4006 27.6314C78.3927 27.7971 78.3848 27.9628 78.3772 28.1285C78.3621 28.3424 78.3478 28.564 78.333 28.7915C78.1763 31.2075 77.9762 34.2941 76.462 35.951C75.4056 37.0922 74.068 37.5063 72.6849 37.5616C72.0693 37.58 71.4461 37.58 70.8305 37.4787C67.9197 36.945 66.567 35.3897 66.0806 31.5152C65.5258 27.0425 65.4802 22.4962 66.1414 18.0235C66.8253 13.3944 69.1813 11.7563 72.8445 12.06C76.2644 12.3545 77.792 15.0694 78.1948 18.9346C78.4152 21.1526 78.5216 23.3981 78.476 25.6436ZM73.8298 23.4472C73.8273 23.8976 73.8248 24.3477 73.8248 24.797C73.8248 26.2544 73.7784 27.7118 73.7321 29.1663V29.1664V29.1664V29.1665V29.1666L73.732 29.1669L73.732 29.1673L73.732 29.1677L73.732 29.168C73.7108 29.8346 73.6896 30.5005 73.6728 31.1655C73.6728 31.6992 73.5209 32.2422 73.3461 32.7392C73.1257 33.3834 72.7305 33.7423 72.1301 33.7423C71.5145 33.7423 71.0433 33.3742 70.8609 32.7024C70.3876 30.9685 70.4385 29.103 70.4888 27.2639V27.2638V27.2638V27.2638V27.2637V27.2637C70.5022 26.7699 70.5157 26.2779 70.5189 25.7909C70.5341 23.3245 70.5493 20.8489 70.5493 18.3825C70.5493 18.0443 70.6303 17.6979 70.7096 17.3587L70.7096 17.3587L70.7241 17.2965C70.9673 16.3302 71.4385 15.8332 72.1073 15.8148C72.7913 15.7964 73.3385 16.2934 73.5209 17.3333C73.6804 18.2352 73.7792 19.1555 73.8096 20.0666C73.8422 21.1909 73.836 22.3199 73.8298 23.4469V23.447V23.447V23.447V23.4472ZM59.3775 20.1679C59.4866 19.5219 59.5941 18.8799 59.7011 18.2407L59.7011 18.2407L59.7012 18.2403C59.9891 16.5212 60.2736 14.8222 60.5782 13.1183C60.8218 11.7378 61.0784 10.3572 61.3353 8.97567C61.6314 7.38261 61.9278 5.78832 62.2046 4.1914C62.3338 3.46436 62.577 3.2895 63.147 3.30791C64.0171 3.34717 64.8987 3.3399 65.8055 3.33242H65.8055H65.8055H65.8055C66.1739 3.32939 66.5465 3.32631 66.9241 3.32631C66.5334 5.0668 66.1491 6.72972 65.7712 8.36492L65.6702 8.80211C64.3706 14.3791 63.071 19.9746 61.7866 25.57C61.6878 26.0026 61.6422 26.4719 61.6422 26.9321C61.6321 28.9685 61.6355 31.0009 61.6388 33.0346V33.0347V33.0349V33.035C61.6405 34.0525 61.6422 35.0703 61.6422 36.0891V37.083H57.1811C57.176 36.991 57.1693 36.8989 57.1625 36.8069C57.149 36.6229 57.1355 36.4388 57.1355 36.2547C57.1355 35.7023 57.1239 35.1489 57.1123 34.5958L57.1123 34.5958C57.0875 33.4166 57.0627 32.2386 57.1507 31.0734C57.436 27.4824 56.6499 24.1439 55.8641 20.8068C55.7498 20.321 55.6354 19.8353 55.5243 19.3488C54.9468 16.8185 54.3656 14.2836 53.7843 11.7487L53.784 11.7474L53.784 11.7471C53.2026 9.21168 52.6212 6.67623 52.0436 4.14538C52.0095 4.01143 51.9874 3.8717 51.9639 3.72298C51.9453 3.60605 51.9259 3.48355 51.8992 3.35392H56.4515C57.4091 8.94016 58.3743 14.5264 59.3775 20.1679ZM138.971 26.5824H146.662C146.662 25.4418 146.67 24.3325 146.678 23.2383V23.2368V23.2355C146.687 21.9556 146.697 20.6963 146.693 19.4316C146.662 18.4101 146.518 17.3793 146.32 16.3762C145.887 14.2411 144.891 12.6122 143.022 12.2164C141.867 11.9772 140.658 11.9219 139.488 12.06C137.337 12.3177 135.946 13.8546 135.308 16.3578C135.148 16.9652 135.004 17.5634 134.92 18.1892C134.449 21.944 134.533 25.7265 134.761 29.4721C134.844 30.9906 135.232 32.5091 135.642 33.9632C136.083 35.5185 137.064 36.5308 138.378 37.0002C140.157 37.6352 141.943 37.6352 143.683 36.8069C145.895 35.767 147.209 32.3987 146.48 29.7758C145.598 29.7305 144.708 29.6715 143.806 29.6117C143.425 29.5865 143.043 29.5611 142.657 29.5365L142.65 29.6966L142.65 29.6973L142.65 29.6978C142.631 30.1344 142.616 30.4769 142.589 30.7973C142.558 31.2023 142.513 31.598 142.444 31.9937C142.231 33.2085 141.699 33.7607 140.787 33.7423C139.913 33.7331 139.359 33.2085 139.245 31.9845C139.129 30.7137 139.081 29.4332 139.032 28.1153V28.1151C139.013 27.6102 138.994 27.0998 138.971 26.5824ZM142.292 23.3521C142.292 22.8845 142.293 22.424 142.294 21.9685C142.297 20.6223 142.3 19.3209 142.277 18.0143C142.277 17.6002 142.148 17.1677 142.019 16.7719C141.76 15.9989 141.221 15.7872 140.575 15.7872C139.929 15.7872 139.518 16.1829 139.359 16.8916C138.961 18.6283 138.995 20.3957 139.029 22.1737C139.037 22.5722 139.044 22.9712 139.047 23.3705C140.21 23.3521 141.266 23.3521 142.292 23.3521H142.292ZM92.2546 7.83579H96.7765L96.7841 37.083H101.26V7.80818H105.752V3.39993H92.2546V7.83579Z" fill="black"/>
</svg>
